<?xml version="1.0" standalone="no"?>
<!DOCTYPE svg PUBLIC "-//W3C//DTD SVG 20010904//EN"
 "http://www.w3.org/TR/2001/REC-SVG-20010904/DTD/svg10.dtd">
<svg version="1.0" xmlns="http://www.w3.org/2000/svg"
 width="192.000000pt" height="192.000000pt" viewBox="0 0 192.000000 192.000000"
 preserveAspectRatio="xMidYMid meet">
<metadata>
Created by potrace 1.14, written by Peter Selinger 2001-2017
</metadata>
<g transform="translate(0.000000,192.000000) scale(0.100000,-0.100000)"
fill="#000000" stroke="none">
<path d="M135 1633 c-11 -3 -22 -8 -25 -12 -3 -4 -19 -17 -36 -29 -45 -31 -77
-104 -71 -161 6 -67 15 -83 117 -221 51 -69 120 -162 154 -208 34 -46 82 -111
107 -145 66 -88 310 -419 334 -452 71 -98 108 -120 202 -120 52 0 68 5 104 30
75 54 109 158 76 236 -8 19 -81 124 -162 234 -82 110 -209 283 -284 384 -306
415 -313 425 -361 448 -43 21 -107 28 -155 16z"/>
<path d="M815 1621 c-72 -33 -115 -102 -115 -183 0 -44 26 -112 51 -138 8 -8
57 -73 109 -145 52 -71 130 -176 172 -233 43 -56 78 -106 78 -111 0 -5 3 -11
8 -13 4 -1 42 -50 85 -108 43 -58 84 -113 92 -123 8 -9 15 -21 15 -26 0 -5 3
-11 8 -13 4 -1 39 -46 79 -99 91 -122 124 -144 218 -144 83 1 127 23 171 86
50 73 35 192 -35 266 -12 12 -21 26 -21 32 0 5 -4 11 -8 13 -4 2 -37 43 -72
93 -36 49 -71 97 -77 105 -7 8 -49 65 -93 125 -44 61 -88 121 -99 135 -10 14
-80 108 -154 210 -75 102 -151 202 -169 223 -56 64 -162 85 -243 48z"/>
<path d="M1665 1626 c-112 -50 -146 -196 -66 -285 53 -58 121 -77 192 -54 84
28 134 101 126 183 -6 58 -20 86 -63 126 -48 45 -128 57 -189 30z"/>
</g>
</svg>
